HIERARCHY
ROOT Hips
{
  OFFSET -35.4901 99.2528 17.4586
  CHANNELS 6 Xposition Yposition Zposition Zrotation Xrotation Yrotation
  JOINT LeftUpLeg
  {
    OFFSET 8.64259 1.95398 -2.38835
    CHANNELS 3 Zrotation Xrotation Yrotation
    JOINT LeftLeg
    {
      OFFSET 43.7702 0 0
      CHANNELS 3 Zrotation Xrotation Yrotation
      JOINT LeftFoot
      {
        OFFSET 40.6238 0 0
        CHANNELS 3 Zrotation Xrotation Yrotation
        JOINT LeftToeBase
        {
          OFFSET 12.7242 0 0
          CHANNELS 3 Zrotation Xrotation Yrotation
          End Site
          {
            OFFSET 0 0 0
          }
        }
      }
    }
  }
  JOINT RightUpLeg
  {
    OFFSET -8.2249 1.95398 -2.59336
    CHANNELS 3 Zrotation Xrotation Yrotation
    JOINT RightLeg
    {
      OFFSET 43.5653 0 0
      CHANNELS 3 Zrotation Xrotation Yrotation
      JOINT RightFoot
      {
        OFFSET 40.6238 0 0
        CHANNELS 3 Zrotation Xrotation Yrotation
        JOINT RightToeBase
        {
          OFFSET 12.7242 0 0
          CHANNELS 3 Zrotation Xrotation Yrotation
          End Site
          {
            OFFSET 0 0 0
          }
        }
      }
    }
  }
  JOINT Spine
  {
    OFFSET 0.165834 0.87714 6.61349
    CHANNELS 3 Zrotation Xrotation Yrotation
    JOINT Spine1
    {
      OFFSET 7.38963 1.71661e-005 0
      CHANNELS 3 Zrotation Xrotation Yrotation
      JOINT Spine2
      {
        OFFSET 11.9445 1.14441e-005 0
        CHANNELS 3 Zrotation Xrotation Yrotation
        JOINT Spine3
        {
          OFFSET 14.7254 4.19617e-005 0
          CHANNELS 3 Zrotation Xrotation Yrotation
          JOINT Spine4
          {
            OFFSET 10.9679 0 0
            CHANNELS 3 Zrotation Xrotation Yrotation
            JOINT RightShoulder
            {
              OFFSET 2.46616 -1.6653 3.69651
              CHANNELS 3 Zrotation Xrotation Yrotation
              JOINT RightArm
              {
                OFFSET 13.0012 0 0
                CHANNELS 3 Zrotation Xrotation Yrotation
                JOINT RightForeArm
                {
                  OFFSET 28.7848 1.52588e-005 0
                  CHANNELS 3 Zrotation Xrotation Yrotation
                  JOINT RightHand
                  {
                    OFFSET 26.5688 1.52588e-005 0
                    CHANNELS 3 Zrotation Xrotation Yrotation
                    End Site
                    {
                      OFFSET 0 0 0
                    }
                  }
                }
              }
            }
            JOINT LeftShoulder
            {
              OFFSET 2.38034 -1.29275 -3.7523
              CHANNELS 3 Zrotation Xrotation Yrotation
              JOINT LeftArm
              {
                OFFSET 16.3182 6.10351e-005 0
                CHANNELS 3 Zrotation Xrotation Yrotation
                JOINT LeftForeArm
                {
                  OFFSET 27.0901 0 0
                  CHANNELS 3 Zrotation Xrotation Yrotation
                  JOINT LeftHand
                  {
                    OFFSET 24.5451 1.52588e-005 0
                    CHANNELS 3 Zrotation Xrotation Yrotation
                    End Site
                    {
                      OFFSET 0 0 0
                    }
                  }
                }
              }
            }
            JOINT Neck
            {
              OFFSET 5.0226 -0.0266342 0
              CHANNELS 3 Zrotation Xrotation Yrotation
              JOINT Head
              {
                OFFSET 6.69364 2.86102e-005 0
                CHANNELS 3 Zrotation Xrotation Yrotation
                End Site
                {
                  OFFSET 0 0 0
                }
              }
            }
          }
        }
      }
    }
  }
}
MOTION
Frames:	15
Frame Time:	0.0416667
-22.0244 99.6508 58.3724 102.049 26.9693 84.4497 -178.313 -6.89763 88.4257 -10.124 -4.92012 0.255091 72.0004 4.98929 -1.4639 9.66389 -3.91465 6.0517 170.489 -5.18469 86.3579 -12.2352 -21.4262 -2.57583 67.1056 -3.61943 0.858775 23.0656 -0.759011 2.5161 0.1018 7.92049 -90.0335 11.033 0.187187 -0.0846399 -0.637986 0.183307 -0.0928051 -23.1733 0.203958 -0.0244741 -3.16061 0.203965 -0.0244736 87.6737 -30.2171 -111.24 23.3885 -8.82593 -28.7539 13.6532 10.4773 -45.3617 -14.29 1.39502 -13.6629 -85.2602 -50.6175 85.9295 -19.7981 7.04868 -21.2479 -29.0232 -27.6642 -56.2166 -1.92666 -0.110405 -9.47557 -8.51835 -6.16154 -5.38692 -4.22213 -5.79035 -1.0081 
-22.0636 99.6564 58.3176 101.863 27.513 84.474 -178.347 -6.38005 88.4497 -10.5682 -4.60065 0.330222 70.8343 4.40819 -1.64142 12.8909 -3.26603 5.28969 170.298 -5.07712 86.2598 -12.0404 -21.1732 -2.38688 67.1855 -3.68378 0.813553 23.1034 -0.697034 2.37246 0.131252 7.90589 -90.0651 11.0622 0.231128 -0.15176 -0.608703 0.224231 -0.1618 -23.144 0.266048 -0.0752833 -3.13136 0.266073 -0.0752841 87.9616 -29.6951 -110.908 24.1229 -8.13294 -28.4395 11.9015 7.3204 -44.6373 -13.0429 1.47877 -15.6731 -85.4524 -51.164 85.716 -19.4655 7.12432 -21.8119 -27.4095 -27.1766 -54.9645 -1.65358 -0.118098 -8.71943 -7.90291 -2.1421 -4.16465 -4.75088 -1.87535 1.18574 
-22.1434 99.6094 58.2437 101.886 28.4253 84.4251 -178.105 -5.98187 88.672 -11.1473 -3.38984 0.157952 71.8147 4.75999 -1.98565 11.1541 -4.23891 6.46539 169.997 -5.15169 86.1575 -11.8544 -20.8809 -2.05061 67.5752 -3.87918 0.794713 22.674 -0.253985 1.37664 0.148338 7.906 -90.0815 11.0621 0.257537 -0.186914 -0.608862 0.24906 -0.19807 -23.1442 0.301796 -0.100876 -3.13154 0.301811 -0.10087 87.7096 -29.8568 -111.331 24.1803 -7.4621 -27.3605 12.4746 8.06634 -45.1966 -13.4896 1.52621 -15.5467 -85.7114 -51.4524 85.3703 -19.4447 7.47721 -22.1362 -27.512 -27.4 -54.7099 -0.0978093 -0.156611 -7.86221 -7.07412 0.671876 -4.01848 -5.7185 0.894005 2.85744 
-22.2634 99.5924 58.0336 101.488 29.2249 84.3568 -178.313 -5.29343 88.3455 -11.4722 -2.97677 0.182252 70.7719 4.36892 -1.65528 14.0948 -3.18603 5.22912 169.582 -4.66936 85.7661 -11.9938 -20.6653 -1.78751 67.8101 -3.98837 0.744326 22.517 -0.00794924 0.824133 0.169328 7.87786 -90.0649 11.1184 0.30689 -0.159061 -0.552548 0.299612 -0.17242 -23.088 0.340518 -0.0594689 -3.07532 0.340514 -0.0594765 87.7139 -30.0788 -111.223 24.0846 -6.98543 -26.8888 12.4326 7.83667 -45.2513 -13.7417 1.54317 -15.5309 -85.7342 -51.2984 85.3153 -20.2494 7.81393 -22.4021 -27.0569 -27.424 -54.3534 -0.0737579 -0.167823 -8.27811 -6.21139 2.63536 -4.07718 -6.13126 2.83118 4.16423 
-22.2476 99.5599 57.7974 101.163 30.0559 84.4883 -178.227 -4.78077 88.3883 -11.8807 -2.32256 0.065906 71.159 4.54132 -1.61694 13.6859 -2.98972 4.97142 169.609 -4.45949 85.7501 -11.9297 -19.0906 -1.80401 67.3014 -3.75572 1.31203 24.1925 -0.672802 2.22556 0.197204 7.86502 -90.1032 11.1442 0.344616 -0.23899 -0.526764 0.333764 -0.253931 -23.0622 0.400498 -0.124373 -3.04957 0.400512 -0.124367 87.7831 -29.8789 -111.176 24.1121 -6.16289 -26.5572 11.8907 7.14281 -44.9767 -12.7168 1.57973 -16.7743 -85.6795 -51.8192 85.4684 -20.5554 8.19824 -23.1209 -26.5803 -27.4484 -53.6723 0.512949 -0.172648 -7.63028 -5.32834 3.80409 -3.385 -6.62946 3.92442 4.62922 
-22.2247 99.5628 57.3475 101.396 30.794 84.1069 -178.355 -5.08083 88.049 -11.6815 -1.64459 0.0508803 70.9745 4.55957 -1.46354 13.8277 -2.46482 4.30031 169.239 -4.75518 85.2606 -11.9662 -18.7158 -1.77986 67.6015 -3.87802 1.25236 24.1048 -0.671429 2.22849 0.212497 7.90578 -90.0959 11.0627 0.37825 -0.227275 -0.608212 0.367901 -0.243704 -23.1438 0.429114 -0.10307 -3.13112 0.429069 -0.103084 87.6129 -29.8231 -111.535 24.0916 -5.87845 -25.9149 12.9639 8.87026 -45.5465 -14.6762 1.66601 -15.6203 -85.6015 -51.7672 85.5765 -20.5355 9.32475 -23.9389 -26.7308 -27.8476 -53.5134 -1.86864 -0.115873 -9.69595 -4.8556 4.4739 -2.95218 -6.54078 4.5675 4.56708 
-22.1998 99.5591 56.8364 101.219 31.7238 83.9965 -178.254 -5.00594 87.9054 -11.679 -0.577827 -0.226503 71.2466 4.76769 -1.53539 14.06 -3.06842 5.07159 168.854 -4.87359 84.8535 -11.7113 -18.2451 -1.64535 67.6935 -3.90761 1.36204 24.296 -0.427183 1.62698 0.207915 7.87798 -90.0867 11.1183 0.37365 -0.208926 -0.552661 0.364103 -0.225181 -23.0882 0.419165 -0.0869706 -3.07556 0.419169 -0.08697 87.7732 -29.8844 -111.193 24.3364 -5.27409 -25.7439 11.9826 6.53443 -45.1485 -13.7984 1.68122 -16.7578 -85.5318 -51.788 85.6823 -20.3943 9.84094 -24.464 -26.6069 -28.0288 -52.9285 -1.13742 -0.140745 -9.01376 -4.30097 4.71374 -2.47384 -6.94633 4.77589 4.05609 
-22.0787 99.5561 56.159 101.027 32.604 83.9146 -178.568 -5.13728 87.4612 -11.3892 -0.360096 -0.0532814 71.4748 4.94137 -2.01024 12.3226 -2.49117 4.3459 168.448 -5.18857 84.3964 -11.1883 -17.636 -1.56193 67.565 -3.83192 1.40408 24.6949 -0.518843 1.81128 0.199135 7.86613 -90.0965 11.142 0.351591 -0.226427 -0.528931 0.34128 -0.241683 -23.0644 0.403399 -0.110287 -3.05178 0.403385 -0.110295 87.8471 -29.7754 -111.097 24.5005 -4.01858 -25.6472 8.68705 0.470139 -44.6062 -11.0883 1.34403 -17.9214 -85.5022 -51.8008 85.7276 -20.5298 10.1989 -25.0432 -26.4474 -28.2706 -52.4581 -1.28438 -0.135357 -9.0912 -3.8536 4.7455 -1.94468 -7.13473 4.76338 3.79511 
-22.0208 99.5231 55.3526 100.953 33.626 83.6028 -178.821 -5.21813 86.8214 -11.5255 0.307805 -0.101391 71.7003 5.08013 -1.71425 13.4576 -2.97574 4.95237 167.855 -5.53016 83.6615 -10.744 -17.4256 -1.46771 67.8879 -3.98308 1.50133 24.9205 -0.219771 1.05981 0.175577 7.84041 -90.1063 11.1934 0.300054 -0.241103 -0.477563 0.289173 -0.254085 -23.0129 0.358658 -0.139779 -3.00028 0.358654 -0.139777 88.0797 -29.3617 -110.823 24.6028 -5.30315 -25.2461 15.9252 13.279 -46.5677 -16.3013 1.80714 -14.874 -85.4968 -51.9171 85.7513 -20.9175 10.1657 -25.3235 -25.5232 -27.7017 -51.9137 -1.41777 -0.126147 -8.64355 -4.06946 4.69332 -1.39352 -6.6884 4.6711 3.6524 
-21.8191 99.4308 54.6192 100.715 33.8023 83.7598 -178.636 -5.11289 86.7711 -12.0707 0.701371 -0.42907 72.201 5.20684 -1.68825 13.181 -2.72176 4.63726 167.95 -5.604 83.5237 -11.0154 -16.7568 -1.73009 68.3026 -4.18128 1.63377 25.0772 -0.234251 1.07772 0.252174 7.82273 -90.1258 11.229 0.443438 -0.294074 -0.441901 0.430065 -0.313311 -22.9776 0.511314 -0.147203 -2.96493 0.511311 -0.147212 88.1 -29.5937 -110.68 24.7503 -3.91327 -24.8922 11.9517 6.19045 -45.2837 -13.4167 1.6757 -17.0996 -85.5536 -51.2936 85.5833 -21.4307 10.656 -25.4967 -25.8322 -27.8193 -51.885 0.573803 -0.17584 -7.60604 -3.73285 4.41726 -1.3413 -6.80716 4.40269 3.3247 
-21.7403 99.21 53.7629 100.825 35.0143 83.4371 -178.251 -4.48675 86.6597 -14.0558 2.28575 -0.967034 73.3976 5.66958 -1.23216 12.4896 -2.10015 3.85908 167.935 -5.22403 83.1618 -12.7705 -15.4491 -1.96448 69.4791 -4.79534 1.57669 26.2636 -0.252456 0.989056 0.197296 7.82797 -90.1396 11.2183 0.327756 -0.310204 -0.452601 0.313796 -0.324336 -22.988 0.405837 -0.197354 -2.97531 0.405847 -0.197359 88.0315 -29.6435 -110.793 24.7648 -3.13217 -24.4126 11.0309 5.47003 -45.5049 -12.9673 1.59624 -17.1746 -85.5558 -51.2792 85.578 -21.5914 11.529 -26.1793 -25.8511 -28.2618 -51.5476 0.681579 -0.194624 -8.28644 -3.76132 4.13054 -1.20097 -6.46973 4.12759 2.91316 
-21.5472 98.7025 53.0373 101.242 35.761 83.0329 -177.506 -3.41028 86.8952 -17.6976 3.58055 -1.7171 75.7084 6.22968 -1.56616 12.7578 -2.50272 4.35432 169.033 -4.15745 83.2331 -16.8854 -13.032 -2.40884 71.6998 -6.24398 1.69362 27.8883 -0.316546 0.964043 0.207544 7.86002 -90.1543 11.1542 0.341421 -0.340521 -0.516748 0.326113 -0.355229 -23.0521 0.427976 -0.222165 -3.03944 0.427991 -0.222168 88.1707 -29.717 -110.487 24.7819 -2.54645 -23.9898 11.1696 5.61372 -45.6427 -12.9527 1.58113 -16.8818 -85.6942 -50.7401 85.2971 -22.9302 11.6657 -26.7883 -24.8146 -28.1222 -50.5246 0.360998 -0.172435 -7.80068 -3.84436 3.7822 -1.66915 -6.61368 3.81883 3.07548 
-21.4789 98.0627 52.3819 101.474 36.0323 82.2848 -177.186 -2.16311 86.4414 -21.3713 4.17337 -2.36324 77.9505 6.70551 -1.51221 12.111 -2.23568 4.02597 171.16 -0.489288 83.1657 -25.3744 -11.2729 -3.28378 73.5645 -7.60174 0.817713 29.1307 -0.0189779 -0.000541871 0.24218 7.94418 -90.0672 10.9859 0.451026 -0.176814 -0.684977 0.442787 -0.196495 -23.2208 0.483315 -0.033077 -3.2081 0.4833 -0.0330852 88.0997 -30.1937 -110.419 24.3839 -1.98902 -23.9661 12.6033 6.67455 -45.1331 -14.6838 1.68378 -16.0243 -85.6711 -49.1662 85.1083 -24.7556 11.5025 -28.0586 -23.6105 -27.7288 -49.6969 1.43671 -0.182253 -7.12763 -2.90194 3.47494 -3.57732 -6.93254 3.68123 4.29612 
-21.1543 97.7206 51.7266 101.79 35.7996 81.6246 -177.185 -2.36805 85.8878 -22.5537 3.63972 -2.69004 78.7638 6.77823 -1.87617 12.7384 -1.9746 3.6888 174.269 4.54193 83.9143 -36.2718 -10.6805 -4.78618 74.8615 -8.20413 -0.417655 25.0155 -0.460452 1.6175 0.292918 8.00945 -90.0157 10.8553 0.575952 -0.0852141 -0.81553 0.571658 -0.110495 -23.3517 0.574956 0.0918311 -3.33905 0.574946 0.0918204 87.9866 -30.1049 -110.679 24.0899 -1.69307 -24.0631 12.883 6.49666 -45.159 -13.9804 1.73373 -16.9488 -85.6656 -49.4755 85.1612 -24.0338 11.2618 -29.1216 -23.5636 -27.5155 -49.5724 2.32115 -0.186576 -6.71094 -2.90793 3.40406 -2.95082 -6.75473 3.6063 2.82404 
-20.6394 97.5938 51.038 101.826 36.0556 81.6751 -177.48 -2.57342 85.5538 -23.2468 3.70389 -2.32848 80.0899 7.25429 -1.17304 11.0674 -1.42599 3.08125 176.564 9.01708 85.2611 -43.2995 -12.4027 -5.18811 76.2886 -8.90585 -1.86072 21.8818 -0.681102 2.44517 0.275054 8.0378 -90.0131 10.7986 0.541629 -0.0765823 -0.872236 0.537734 -0.100358 -23.4083 0.53961 0.0897454 -3.39562 0.539594 0.0897337 87.7058 -30.3873 -111.102 23.9045 -1.03342 -24.1718 11.5474 5.18321 -45.1662 -11.659 1.57195 -17.9781 -85.5667 -49.2201 85.2749 -24.4329 10.6842 -30.2263 -22.549 -27.5406 -48.3543 2.91341 -0.166777 -6.02323 -2.84984 3.43703 -3.74131 -7.19373 3.70051 3.30833 
